<?xml version="1.0" encoding="UTF-8"?><svg id="a" xmlns="http://www.w3.org/2000/svg" viewBox="0 0 800 600.7"><path d="M371.15,78.75c-3.85-.92-7.71-1.79-11.55-2.76-4.2-1.06-5.23-2.42-5.26-6.68,0-1.4-.03-2.8,.03-4.19,.06-1.29,.21-2.58,.3-3.58-1.17-1.58-3.04-2.99-3.26-4.61-.44-3.28-.28-6.73,.23-10.02,.3-1.97,2.41-1.72,4.12-1.53,3.23,.35,6.47,.55,10.08,.85-.82-4.62-1.5-8.79-2.33-12.93-.41-2.06-.49-3.95,1.24-5.42,1.7-1.45,3.54-.89,5.33-.15,14.88,6.12,29.86,6.93,45.01,.97,3.03-1.19,4.88,.21,4.91,3.58,.04,5.83,.01,11.65,.01,17.78,2.52,.14,4.46,.24,6.4,.36,3.16,.19,4.11,.93,4.01,4-.11,3.19,1.39,6.56-.89,9.58-.19,.25,.22,.89,.24,1.36,.2,3.52,.61,7.05,.41,10.55-.06,1.04-1.66,2.33-2.84,2.9-1.51,.72-3.33,.76-4.98,1.23-.58,.17-1.05,.73-1.57,1.11l.3,.58c1.69-.18,3.38-.32,5.06-.55,2.84-.39,4.07,.54,4.23,3.3,.14,2.3,.25,4.6,.37,6.9,.13,2.54-.91,4.28-3.43,4.99-1.96,.55-3.92,1.06-5.97,1.62,0,2.73-.06,5.43,.01,8.12,.34,12.32,.5,24.66,1.15,36.97,.9,16.99,2.2,33.95,3.27,50.93,.75,11.89,1.37,23.8,2.11,35.69,.9,14.44,1.89,28.86,2.79,43.3,.57,9.03,1.03,18.06,1.58,27.08,.34,5.62,3.33,9.87,7.43,13.36,.59,.5,2.35,.21,3.24-.31,4.89-2.84,9.54-6.12,14.55-8.72,3.58-1.86,7.51-3.75,11.43-4.13,11.97-1.13,19.95,8.68,17.58,20.88-3.18,16.33-6.32,32.67-9.47,49-1.27,6.59,.19,12.68,4.17,17.93,4.51,5.95,9.39,11.62,14.23,17.32,10.14,11.94,19.69,24.3,24.91,39.29,10.43,29.94,4.23,56.42-17.61,79.16-10.4,10.83-23.37,17.94-37.22,23.42-15.83,6.27-32.29,10.31-49.16,12.42-10.09,1.26-20.25,2.36-30.4,2.67-22.92,.71-44.77-3.24-63.99-16.87-14.42-10.22-24.39-23.51-28.05-41.04-2.51-12.03-.9-23.86,2.44-35.51,4.99-17.41,13.42-33.24,22.53-48.75,2.37-4.03,4.62-8.13,7.09-12.11,6.97-11.26,7.68-22.81,2.41-34.99-4.03-9.32-7.88-18.74-11.23-28.31-4.26-12.19-4.75-24.56,.09-36.83,3.72-9.43,10.1-16.6,18.45-22.15,11.47-7.63,24.33-11.61,37.68-14.24,1.68-.33,2.4-.76,2.31-2.6-.25-5.01,.84-9.79,3.07-14.28,2.73-5.5,3.58-11.28,3.43-17.41-.86-37.25-1.43-74.5-2.42-111.75-.17-6.24-1.91-12.45-2.95-18.66-.37-2.18-.96-4.33-1.19-6.52-.18-1.68-.97-2.38-2.52-2.8-3.78-1.03-7.54-2.18-11.28-3.34-4.7-1.46-5.86-3.29-5.36-8.21,.15-1.47,.2-2.95,.39-4.42,.33-2.58,1.87-3.65,4.45-3.32,3.25,.42,6.52,.72,9.78,1.07l.06-.56Zm11.85,195.07c-.99,.06-1.8,.06-2.6,.16-12.65,1.69-24.27,5.99-34.68,13.47-14.01,10.06-21.2,23.57-21,40.92,.1,8.92,2.2,17.38,5.78,25.49,3.47,7.87,7.27,15.6,10.64,23.51,3.17,7.44,4.38,15.32,1.57,23.05-2.2,6.04-5.19,11.86-8.35,17.48-8.64,15.38-17.21,30.77-22.72,47.63-4.5,13.75-6.88,27.78-4.52,42.2,3.03,18.53,13.22,32.26,29.42,41.48,12.14,6.91,25.61,8.9,39.3,9.48,11.84,.5,23.63-.29,35.39-1.84,16.21-2.13,32.13-5.49,47.55-10.99,17.56-6.26,33.56-15.04,45.8-29.54,15.08-17.87,20.17-38.32,15.13-61.16-2.96-13.39-9.52-25.12-17.84-35.82-6.4-8.23-13.27-16.11-20.03-24.05-7.49-8.8-10.44-18.46-7.78-30.12,3.55-15.56,6.21-31.33,9.26-47.01,.99-5.07-1.16-8.77-5.06-11.69-3.79-2.83-7.62-2.5-11.43-.02-1.17,.76-2.33,1.52-3.49,2.3-4.01,2.71-7.84,5.73-12.05,8.06-6.37,3.54-12.49,2.05-17.06-3.64-.34-.42-.43-1.03-.64-1.56-.26,.22-.53,.44-.79,.66,.36,5.81,.66,11.62,1.13,17.42,.06,.73,.91,1.48,1.54,2.06,10.54,9.73,15.38,21.77,14.79,36.07-.47,11.35-5.23,20.82-12.53,29.25-.56,.65-1.01,1.7-.97,2.54,.65,12.48,1.37,24.95,2.11,37.43,.23,3.82,.57,7.64,.86,11.56,.86,0,1.43,.04,1.99,0,7.03-.6,14.07-1.15,21.1-1.85,4.26-.42,5.3,.41,5.53,4.67,.23,4.35,.56,8.69,.88,13.04,.33,4.37-.38,5.1-4.79,5.43-3.88,.29-7.75,.8-11.68,1.21,.21,3.02,.39,5.71,.59,8.41,.19,2.49-.61,3.47-3.09,3.71-8.58,.85-17.16,1.66-25.73,2.54-13.88,1.41-27.76,2.87-41.65,4.29-2.92,.3-3.76-.54-3.9-3.59-.14-3.18-.3-6.36-.47-9.73-1.48,.11-2.69,.21-3.91,.29-3.77,.27-7.54,.52-11.31,.79-2.3,.16-3.35-1.07-3.44-3.21-.23-5.42-.38-10.85-.61-16.27-.09-2.13,.88-3.28,2.93-3.48,3.02-.3,6.05-.51,9.08-.76,6.53-.54,13.05-1.08,19.66-1.63,.06-.41,.16-.73,.15-1.03-.38-14.96-.76-29.93-1.21-44.89-.02-.64-.62-1.41-1.17-1.85-2.76-2.18-5.85-4.01-8.36-6.44-10-9.69-14.43-21.63-13.68-35.53,.7-12.87,6.24-23.28,16.11-31.4,1.32-1.09,1.77-2.08,1.73-3.68-.43-16.69-.8-33.38-1.2-50.08-.03-1.21-.17-2.42-.28-3.77Zm27.99-155.52h6.73c-.49-28.69-.97-57.19-1.46-85.93-16.01,5.81-31.53,5.13-47.16-1.05,.13,.9,.21,1.61,.34,2.31,2.2,12.09,4.42,24.18,6.62,36.27,2.74,15.07,5.44,30.15,8.22,45.21,.72,3.9,.82,3.88,5.15,3.32-.26-10.61-.52-21.25-.78-31.87-5.55-.5-7.88-2.73-7.12-7,.24-1.34,1.08-2.8,2.09-3.71,2.05-1.86,4.6-1.55,7.05-.57-.48-4.8-.95-9.35-1.42-14.03-.56,.22-1.07,.45-1.59,.63-2.97,1.05-6.04,.08-7.55-2.39-1.42-2.31-1-5.57,.94-7.48,2.03-1.99,5.12-2.3,7.46-.76,2.59,1.7,3.28,4.44,2.32,7.56-.46,1.49-.51,3.21-.31,4.77,.67,5.12,1.67,10.2,2.3,15.32,1.42,11.48,2.7,22.98,4.03,34.47,.64,5.56,.71,5.61,6.4,5.05,.07,0,.12-.09,.38-.29,0-1.3,.05-2.76,0-4.21-.56-13.3-1.14-26.6-1.73-39.9-.26-5.81-.55-11.62-.79-17.43-.13-3.17,1.91-5.77,4.79-6.23,3.18-.5,6.16,1.22,7.02,4.07,.92,3.04-.45,6.17-3.34,7.37-2.55,1.06-4.89,.26-7.05-1.2,.36,5.25,.71,10.39,1.06,15.62,4.75-2.65,8.51-1.99,10.23,1.68,1.77,3.77,.03,6.81-5.11,8.97,.76,10.48,1.52,20.95,2.29,31.43Zm54.56,347.89c-.38-5.39-.73-10.5-1.1-15.72-8.33,.65-16.24,1.27-24.15,1.88v5.14q4.13,.84,4.48,4.86c.07,.82,.2,1.63,.26,2.45,.58,7.43,.34,7.5-7.17,8.1-9.24,.73-18.45,1.82-27.67,2.72-6.04,.59-12.09,1.19-18.14,1.64-3.49,.26-4.06-.45-4.16-4.06-.05-1.8-.15-3.61-.34-5.41-.49-4.54-.35-4.83,3.67-6.62v-5.11c-9.53,.8-18.88,1.58-28.4,2.38,.29,5.42,.56,10.55,.84,15.88,4.94-.34,9.58-.72,14.23-.98,3.82-.21,4.4,.37,4.47,4.29,.05,2.77,0,5.55,0,8.7,22.66-2.23,44.88-4.41,67.11-6.6-.15-3.03-.33-5.65-.39-8.27-.07-3.26,.53-3.79,3.76-4.06,4.08-.34,8.14-.79,12.67-1.23Zm-74.35-.86c.22,3.1,.41,5.75,.6,8.44,16.73-1.63,33.1-3.23,49.61-4.84-.15-2.61-.28-4.95-.43-7.7-16.64,1.37-33.02,2.72-49.77,4.1Zm43.95-65.68c-1.47,1.11-2.55,2.37-3.92,2.87-3.85,1.4-4.28,3.93-4,7.72,.85,11.46,1.16,22.97,1.71,34.45,.08,1.6,.3,3.19,.45,4.8,3.15-.26,5.96-.5,8.68-.72-.99-16.57-1.95-32.68-2.92-49.12Zm-29.72-62.89c-2.04,.53-3.76,.95-5.47,1.41-1.21,.32-1.53,1.03-1.48,2.35,.48,14.29,.91,28.58,1.26,42.87,.16,6.57,.07,6.58,6.67,6.6,.22,0,.43-.13,.8-.26-.59-17.48-1.18-34.95-1.78-52.98Zm1.59-.24c.59,18.05,1.16,35.65,1.73,53.45,1.42-.24,2.53-.47,3.65-.61,2.39-.3,3.37-1.35,3.21-4.01-.55-8.85-.8-17.71-1.17-26.57-.27-6.48-.53-12.96-.91-19.43-.04-.75-.71-1.89-1.33-2.08-1.52-.47-3.19-.49-5.18-.74Zm-6.61,115.25c-.43-14.6-.85-28.77-1.27-42.92-2.63-.89-5.12-1.73-7.7-2.61,.42,15.43,.83,30.59,1.25,46.01,2.66-.17,5-.32,7.72-.49Zm-1.93-62.79c-.52-16.77-1.02-32.79-1.54-49.59-2.56,2.06-4.52,3.53-6.33,5.16-.52,.47-.9,1.42-.88,2.14,.3,11.92,.65,23.84,1.05,35.76,.02,.72,.37,1.69,.9,2.08,2.02,1.48,4.18,2.78,6.78,4.46Zm29.24,60.68c-.73-14.78-1.45-29.23-2.17-43.81-2.74,1.01-5.09,1.87-7.44,2.73,.57,13.85,1.13,27.61,1.71,41.67,2.73-.2,5.16-.39,7.91-.59Zm-10.61-61.56c2.55-1.98,4.64-3.51,6.59-5.18,.44-.38,.62-1.3,.59-1.96-.59-11.64-1.27-23.27-1.84-34.91-.21-4.33-2.73-7.05-7.36-7.53,.66,16.25,1.32,32.48,2.02,49.58Zm-7.58,62.92c-.51-13.9-1.01-27.55-1.51-41.21-2.56-.17-4.82-.32-7.36-.49,.42,14.03,.84,28.02,1.27,42.21,2.59-.17,4.93-.33,7.59-.51Zm.03-41.21c.51,13.71,1.01,27.22,1.5,40.64h7.26c-.6-13.94-1.18-27.6-1.77-41.41-2.46,.27-4.57,.51-6.99,.78Zm-25.22-74.32c-10.91,10.25-15.61,22.54-13.1,37.12,1.99,11.57,7.86,20.85,18.19,27.31,.04-2.83,.14-4.86-2.33-6.95-10.56-8.95-14.69-20.62-12.68-34.3,1.05-7.12,4.14-13.39,8.92-18.82,1.02-1.15,2.03-2.38,1-4.36Zm39.47,8.47c.64,12.24,1.27,24.11,1.91,36.39,7.76-8.46,8.94-26.76-1.91-36.39Zm-39.04-3c-13.61,13.63-12.41,40,4.46,51.56q.41-3.96-2.16-6.65c-9.53-9.98-11.35-26.04-3.82-36.98,1.81-2.63,1.67-5.05,1.52-7.92Zm51.67,50.59c14.87-17.43,11.45-41.96-2.26-54.09,.61,1.85,1.42,3.61,2.45,5.23,8.42,13.27,9.26,26.88,1.36,40.58-1.56,2.71-2.1,5.13-1.55,8.28Zm-13.88-71.64c.3,5.57,.57,10.89,.89,16.2,.03,.54,.18,1.24,.54,1.57,2.32,2.06,4.71,4.04,7.09,6.06-.53-8.09-1.05-16.13-1.59-24.33-2.51,.18-4.61,.34-6.94,.51Zm12.58,23.32l-.71,.09c.62,4.1,.96,8.26,1.92,12.27,1.35,5.64,1.21,11.1-.02,16.75-.75,3.41-.49,7.03-.68,10.56,8.75-11.72,7.47-28.69-.51-39.67Zm-46.94,4.99c-8.21,10.14-6.94,25.26,.88,33.07-.29-11.03-.58-21.72-.88-33.07Zm32.14-180c-.48-7.4-.96-14.64-1.43-21.89h-6.1c.46,7.46,.91,14.7,1.35,21.89h6.18Zm-27.69-21.47v22.37h6.19c-.3-7.59-.59-14.98-.88-22.37h-5.32Zm18.75-24.25c.43,7.36,.85,14.46,1.27,21.56h6.16c-.46-7.32-.91-14.42-1.37-21.56h-6.06Zm-19.56,.04v22.59c2.28-.1,4.05-.18,6.04-.27-.3-7.62-.59-14.94-.88-22.32h-5.15Zm-6.57,46.7h5.99c-.26-7.54-.51-14.87-.75-22.09h-5.24v22.09Zm4.07,152.1v19.19c2.52-1.64,4.64-2.97,6.7-4.4,.38-.26,.72-.9,.71-1.36-.1-4.56-.28-9.11-.44-13.89-2.58,.17-4.84,.32-6.97,.46Zm-4.63-198.7v22.32h5.23v-22.32h-5.23Zm24.51-4.21c-.53-10.74-1.05-21.21-1.57-31.69-1.28-.56-2.52-1.1-3.73-1.63,.44,11.09,.88,22.2,1.32,33.31h3.98Zm-10.06,71.37v-18.64h-5.91v18.64h5.91Zm6.66-21.06c-.34-7.47-.67-14.78-1-22.01h-5.27c.26,7.42,.51,14.68,.77,22.01h5.5Zm-9.88-50.18c-1.35-11.37-2.66-22.44-3.97-33.49-2.45,.69-2.94,2.05-2.36,4.04,.23,.77,.2,1.63,.24,2.44,.35,7.88,.67,15.76,1.04,23.64,.05,1.11,.29,2.2,.45,3.37h4.59Zm20.54,90.55h6.51c-.41-6.23-.81-12.25-1.22-18.48-2.21,.16-4.19,.31-6.36,.47,.37,6.18,.72,12.06,1.08,18.02Zm5.15-20.11c-.41-6.38-.8-12.49-1.18-18.53h-6.22c.38,6.34,.75,12.44,1.11,18.53h6.29Zm-17.95-66.36h-5.19c.31,7.44,.62,14.7,.92,21.91h5.33c-.36-7.37-.71-14.56-1.07-21.91Zm-11.43,69.58h-6.04v17.95h6.04v-17.95Zm14.09-45.81c.37,7.67,.73,14.99,1.07,22.21h5.21c-.46-7.55-.9-14.89-1.35-22.21h-4.94Zm-6.45,63.59v-18.23h-5.82v18.23h5.82Zm-8.45-19.93v-18.59h-5.6v18.96c2.21-.15,4-.26,5.6-.37Zm-4.72,22.2v17.16h6.18v-17.16h-6.18Zm37.38,15.88c-.36-5.94-.71-11.53-1.06-17.25-2.43,.14-4.42,.25-6.48,.37,.36,5.84,.71,11.36,1.05,16.88h6.48Zm-29.47,52.19v-15.53c-2.51,.12-4.76,.23-6.84,.33v15.2h6.84Zm6.06-51.3v-17.08h-5.99v17.08h5.99Zm25.63,34.69h-6.87c.31,5.27,.61,10.37,.92,15.71,2.43-.13,4.58-.24,6.83-.36-.31-5.36-.59-10.31-.88-15.35Zm-38.05,18.67v14.81c2.63-.2,4.88-.37,6.89-.52v-14.29h-6.89Zm16.92-159.86c.37,7.5,.73,14.73,1.09,21.86h4.94c-.47-7.44-.93-14.65-1.39-21.86h-4.64Zm2.53,87.19c-.26-6.22-.52-12.2-.77-18.08h-5.25v18.08h6.02Zm-1.67-38.76h-5.63c.26,6.32,.51,12.43,.76,18.44h5.64c-.26-6.25-.51-12.31-.77-18.44Zm8.98,38.42c-.39-6.2-.76-12.2-1.13-18.14h-5.44c.26,6.15,.51,12.11,.76,18.14h5.81Zm-21.56,37.32v-15.14h-6.4v15.14h6.4Zm2.82,17.96c-.1,.44-.17,.6-.17,.76,.05,3.19,.13,6.38,.17,9.58,.08,6.04,.46,6.32,6.5,4.91v-15.25h-6.51Zm18.42,55.49c0,4.09-.06,7.93,.05,11.77,.02,.74,.56,1.85,1.17,2.13,1.88,.87,3.91,1.43,6.08,2.18-.36-5.51-.72-10.86-1.06-16.07h-6.24Zm5.69-39.11c.29,5.04,.57,9.77,.84,14.41h6.93c-.29-4.95-.57-9.66-.85-14.41h-6.91Zm-2.73-50.87c.31,5.19,.62,10.23,.92,15.26h6.54c-.29-5.22-.57-10.19-.85-15.26h-6.61Zm-10.13-59.66c.26,6.47,.51,12.65,.76,19.06,1.94-.13,3.59-.24,5.48-.36-.38-6.49-.74-12.6-1.1-18.7h-5.14Zm1.08,58.24c-.27-5.9-.53-11.56-.79-17.29-2.17,.11-3.85,.2-5.29,.27v17.02h6.08Zm1.28-17.36v16.99h6.19c-.36-5.81-.7-11.42-1.04-16.99h-5.15Zm-12.96,84.97h6.92c-.24-5-.47-9.71-.69-14.26h-6.23v14.26Zm21.83-17.02c-.28-5.27-.55-10.38-.82-15.63-2.29,.15-4.28,.27-5.86,.37v15.25h6.69Zm.64-17.2c2.52-.2,4.59-.36,6.75-.52-.31-4.97-.6-9.59-.89-14.15h-6.7c.28,4.9,.55,9.61,.84,14.67Zm-31.93-13.38v14.2h6.5v-14.53c-2.44,.12-4.46,.22-6.5,.33Zm14.39-2.47c-.23-5.2-.45-10.16-.68-15.1h-5.97v15.49c2.31-.13,4.24-.25,6.65-.39Zm10.52,35.16c.25,5.02,.49,9.73,.74,14.68,2.28-.12,4.28-.23,6.57-.35-.27-5-.53-9.7-.79-14.33h-6.52Zm-2.16-1.66v-15.46h-5.67v15.46h5.67Zm-7.13-33.73h6.27c-.24-5.28-.46-10.32-.69-15.31h-5.58v15.31Zm7.65-15.59v15.23h6.3c-.31-5.21-.61-10.25-.9-15.23h-5.4Zm-26.09,101.92c-11.37,8.02-17.96,21.61-16.4,38.1,1.53,16.2,12.9,29.04,21.62,32.37-.36-.57-.84-1.01-1.33-1.46-3.53-3.26-7.48-6.18-10.5-9.86-7.4-9-10.02-19.65-8.71-31.11,1.18-10.35,6.04-18.94,13.81-25.89,.64-.57,1.01-1.43,1.51-2.15Zm11.13-69.84h6.09v-14.13h-6.09v14.13Zm2.35,72.4c2.19-.5,4.11-.86,5.97-1.4,.45-.13,1.03-.86,1.04-1.33,.08-3.82,.05-7.64,.05-11.3h-7.06v14.04Zm12.03-72.6c-.26-5.09-.5-9.78-.73-14.41h-5.59v14.41h6.32Zm1.43,33.71c-.25-5.02-.48-9.73-.72-14.61-2.17,.14-4.09,.26-6.2,.39,.22,4.86,.44,9.49,.66,14.22h6.27Zm.05-34.16h6.25c-.28-4.87-.54-9.52-.8-14.09h-6.09c.22,4.79,.43,9.36,.65,14.09Zm-23.04,36.86v11.57h7.03v-11.57h-7.03Zm18.03,34.4h6.68c-.2-4.29-.4-8.5-.6-12.7h-6.07v12.7Zm14.7-35.74c.22,3.95,.42,7.67,.63,11.39h7.01c-.25-3.97-.49-7.75-.72-11.39h-6.92Zm12.7,36.21c.6,.76,1.14,1.58,1.8,2.28,6.88,7.18,10.83,15.77,11.72,25.62,1.07,11.85-2.58,22.29-10.11,31.45-.55,.67-.85,1.56-1.26,2.35,18.23-17.26,15.67-48.73-2.15-61.7Zm-14.26-35.79h-6.69c.22,3.96,.43,7.69,.63,11.32h6.71c-.23-3.92-.44-7.57-.65-11.32Zm-22.42,11.96h6.99c-.21-4.01-.4-7.79-.59-11.36h-6.4v11.36Zm14.2-11.54h-6.3c.2,3.98,.39,7.7,.59,11.64,2.21-.14,4.14-.25,6.34-.39-.22-3.86-.42-7.52-.63-11.25Zm-50.97-217.79c-1.66,2.01-2.27,8.07-1.14,9.61,.37,.5,.95,.97,1.54,1.17,4.45,1.47,8.92,2.86,13.5,4.31,.17-2.67-.43-4.41-3.16-4.83-1.45-.22-2.85-.69-4.27-1.07q-6.09-1.6-6.28-7.91c0-.31-.09-.62-.19-1.28Zm-5.54-32.35h-1.03c-.84,2.53-.81,5.19-.26,7.78,.2,.96,1.08,2.25,1.93,2.52,4.15,1.32,8.4,2.35,12.74,3.52,.28-2.76-.55-3.99-2.87-4.41-2.4-.44-4.76-1.16-7.11-1.87-2.07-.63-3.4-1.86-3.17-4.3,.1-1.06-.14-2.16-.23-3.24Zm15.91,28.34c.57-2.88-.35-4.09-2.81-4.49-2.24-.36-4.42-1.1-6.62-1.7-1.78-.48-2.75-1.59-2.82-3.52-.05-1.45-.31-2.88-.48-4.32l-.83,.07c-.93,3.12-.9,6.29-.14,9.48,.1,.43,.76,.91,1.25,1.05,4.11,1.18,8.25,2.29,12.45,3.44Zm2.58,12.28c-.42-2.46-.77-4.53-1.16-6.81-3.04-.23-6.01-.45-8.96-.67-.43,4.45-.23,4.77,3.68,5.84,2.04,.56,4.09,1.05,6.45,1.64Zm-5.99-33.12c-.32-2.03-.56-3.93-.96-5.8-.09-.41-.7-.96-1.11-1-2.56-.23-5.13-.33-7.69-.47q-.2,4.49,3.65,5.55c1.96,.54,3.91,1.1,6.11,1.72Zm21.35,263.46h7.12v-6.95c-2.59,.12-4.91,.23-7.12,.33v6.62Zm25.25-7.98v7h6.79c-.13-2.44-.25-4.69-.38-7h-6.41Zm7.91,.05c.15,2.23,.29,4.4,.43,6.54h6.74c.16-8.89,1-6.95-6.58-6.74-.08,0-.15,.05-.59,.2Zm12.14,67.7c-2.06,2.57-3.81,5.38-6.17,7.52-2.3,2.08-1.58,4.18-1.47,6.68,7.75-5.48,8.1-6.14,7.64-14.2Zm4.26,73.61c-3.2,.26-6.02,.49-9.05,.73,.17,1.84,.33,3.5,.5,5.31,3.03-.22,5.84-.43,8.84-.65-.1-1.8-.18-3.4-.29-5.4Zm-34.05-140.45h-6.58v6.7h6.58v-6.7Zm1.81-.44v7.05c2.21-.1,4.2-.19,6.07-.27v-6.78h-6.07Zm13.91,147.7c2.89-.2,5.46-.38,8.24-.57-.18-1.96-.32-3.55-.48-5.34-2.73,.14-5.23,.27-7.75,.4v5.51Zm7.05-59.53c6.76-3.56,9.02-7.22,6.96-10.96-1.48,1.33-2.84,2.91-4.52,3.99-2.66,1.72-3.87,3.77-2.44,6.96Zm-26.5,55.64c-2.8,.22-5.28,.41-7.93,.61,.11,2.03,.21,3.69,.31,5.51,2.78-.24,5.2-.45,7.63-.66v-5.47Zm1.62,5.32c2.75-.22,5.22-.42,7.84-.63-.18-2.05-.33-3.72-.49-5.5-2.64,.24-4.97,.44-7.35,.65v5.47ZM361.44,63.25c-.44,4.22-.29,4.59,2.35,5.28,2.03,.52,4.09,.95,6.14,1.42,.23-5.3-.45-5.84-8.5-6.7Zm50.14,396.75c2.43-.19,4.8-.39,7.3-.59-.18-1.83-.34-3.5-.54-5.44-2.43,.23-4.72,.44-7.07,.66,.11,1.92,.2,3.46,.31,5.36Zm-20.43-63.71c-.7,4.92,.29,5.92,7.57,7.75v-4.49c-2.52-1.09-5.03-2.17-7.57-3.26Zm33.5-6.95c-1.34,.81-2.42,1.52-3.56,2.15-1.13,.62-2.31,1.15-3.53,1.75v4.37c6.76-1.49,7.91-2.78,7.09-8.27Zm-6.68,14.49c7.56-2,7.82-2.28,7.1-7.34l-7.58,3.33c.15,1.29,.31,2.56,.48,4.01Zm-18.95-6.5c-.39-1.6-.27-3.61-1.16-4.26-2.03-1.5-4.56-2.34-6.91-3.46-.27,4.93,1.13,6.32,8.07,7.72Zm-17.04-341.01c.02,1.83,1.51,3.4,3.21,3.38,1.73-.03,3.26-1.57,3.29-3.32,.03-1.97-1.18-3.18-3.2-3.21-1.94-.02-3.31,1.29-3.3,3.15Zm38.61,1.55l7.03-.75c.54-4.34-.51-4.93-7.03-4.15v4.9Zm-36.58,22.38c-.15,1.69,1.31,3.43,3.02,3.6,1.73,.17,3.37-1.2,3.57-3,.21-1.87-1.01-3.28-2.98-3.41-2.03-.14-3.46,.97-3.62,2.81Zm22.88-27.18c-1.93,.15-3.03,1.19-3.11,3.12-.07,1.92,1.54,3.43,3.5,3.32,1.91-.11,3.03-1.21,3.12-3.12,.09-1.88-1.54-3.35-3.52-3.31Zm-6.63,345.2c2.49,.4,4.83,.77,7.3,1.17-.09-1.84-.16-3.21-.24-4.73-2.43-.29-4.71-.55-7.06-.83v4.39Zm8.37-320.92c-2.51,.06-3.53,1.12-3.48,3.22,.04,1.97,1.36,3.31,3.18,3.24,1.9-.07,3.39-1.62,3.29-3.49-.12-2.13-1.45-2.92-2.99-2.96Zm-1.06,323.56c-1.36-.11-2.49-.19-3.63-.3-1.18-.11-2.36-.25-3.53-.37-.37,4.74,1.19,5.73,7.16,4.71v-4.04Zm1.59-1.71c8.09-.79,6.97,.04,6.7-5.48-2.24,.35-4.46,.69-6.7,1.04v4.44Zm.18,1.78v4.48c2.49-.36,4.77-.69,7.04-1.01-.17-1.74-.3-3.02-.43-4.38-1.15,.15-2.19,.28-3.22,.42-1.11,.15-2.23,.32-3.38,.49Zm11.64-323.14c7.26-1.41,7.38-1.51,6.63-5.66l-6.63,1.52v4.14Zm.1,10.98c1.46-.22,2.59-.35,3.71-.56,3.38-.66,3.45-.82,2.31-4.62l-6.02,.7v4.49Zm.04,6.25c4.99,.26,7.25-1.41,6.62-5.01-2.23,.48-4.46,.96-6.62,1.42v3.59Zm-.35-24.04c1.51-.27,2.7-.44,3.86-.71,3.14-.74,3.14-.75,2.42-4.28l-6.28,.76v4.24Zm-.2-6.98c5.74,.25,7.67-.93,7.04-4.33l-7.04,.79v3.54Zm6.02,338.38l.55,.62c4.53-2.26,7.6-5.09,7.72-7.22-1.41,1.18-2.75,2.33-4.13,3.43-1.36,1.09-2.76,2.12-4.15,3.17Zm-35.18,.46c1.04,2.22,5.05,3.98,7.82,3.24-2.81-1.17-5.24-2.17-7.82-3.24Zm34.18,.95l-.44-.9c-2.44,1.01-4.87,2.01-7.31,3.01,.12,.28,.24,.56,.37,.84l7.38-2.95Zm-24.74,2.62l-.15,1c2.37,.23,4.74,.47,7.11,.7l.1-1.06-7.07-.63Zm8.45,.83l.12,.8,7.08-.96-.14-.95c-2.35,.37-4.71,.74-7.06,1.11Z"/></svg>